<svg width="16" height="16" viewBox="0 0 16 16" fill="none" xmlns="http://www.w3.org/2000/svg">
<g clip-path="url(#clip0_1_1902)">
<path d="M7.99988 1.43738C6.5879 1.43738 5.37115 2.41344 5.04263 3.76983C4.59 3.81936 4.13741 3.87568 3.68486 3.94802C2.78361 4.09212 2.01771 4.80094 1.80065 5.78273V5.78372C1.31629 7.97899 1.31629 10.1866 1.80065 12.3819C2.01762 13.3639 2.78266 14.0735 3.68395 14.2176C6.55979 14.6773 9.43905 14.6773 12.3149 14.2176C13.2161 14.0735 13.982 13.3647 14.1991 12.3829V12.3819C14.6835 10.1866 14.6835 7.97899 14.1991 5.78372C14.0916 5.29703 13.8492 4.87744 13.5225 4.56026C13.4766 4.49827 13.418 4.44883 13.3513 4.41591C13.0502 4.17514 12.6967 4.00892 12.3158 3.94802C11.863 3.87565 11.4101 3.81937 10.9571 3.76983C10.6286 2.41344 9.41186 1.43738 7.99988 1.43738ZM7.99988 2.45677C8.87738 2.45677 9.60013 2.97021 9.92346 3.67526C9.28222 3.62968 8.64109 3.60358 7.99988 3.60358C7.35867 3.60358 6.71734 3.62968 6.07629 3.67526C6.39963 2.97021 7.12237 2.45677 7.99988 2.45677ZM7.99988 4.62297C8.82342 4.62297 9.64716 4.66644 10.471 4.74442C10.5059 4.75246 10.5415 4.75613 10.5772 4.75537H10.5781C11.1118 4.80808 11.6456 4.87213 12.1794 4.95746C12.3378 4.98279 12.4862 5.0399 12.6225 5.11774C12.2414 6.55769 11.1392 7.73755 9.68816 8.26749C9.45588 7.62899 8.84152 7.1167 7.99988 7.1167C7.15656 7.1167 6.54187 7.63119 6.31068 8.27147C4.85926 7.74138 3.75971 6.55668 3.37907 5.11674C3.51512 5.03929 3.66344 4.9827 3.82128 4.95746C4.35678 4.87186 4.8919 4.80815 5.42717 4.75537C5.46161 4.75583 5.496 4.75216 5.52971 4.74442H5.53154C6.35428 4.66659 7.17713 4.62297 7.99988 4.62297ZM13.2964 6.06943C13.7372 8.09868 13.735 10.1145 13.2872 12.144C13.164 12.7015 12.7182 13.1219 12.1785 13.2082C9.39164 13.6536 6.6072 13.6536 3.82037 13.2082C3.28067 13.1219 2.83589 12.7023 2.71254 12.144C2.26483 10.1148 2.26279 8.09936 2.70339 6.07043C3.34072 7.63558 4.66535 8.83879 6.29603 9.33865C6.51375 10 7.13666 10.5392 7.99988 10.5392C8.86478 10.5392 9.48811 9.99779 9.70464 9.33467C11.3337 8.83416 12.6595 7.63326 13.2964 6.06943ZM7.99988 8.13609C8.63068 8.13609 8.81591 8.4413 8.84402 8.74533C8.81119 8.83904 8.8045 8.94119 8.82479 9.039C8.75554 9.2948 8.54119 9.51983 7.99988 9.51983C7.54448 9.51983 7.31918 9.3602 7.21708 9.15747C7.2517 9.07533 7.26561 8.98466 7.25741 8.89475C7.24921 8.80484 7.21917 8.71892 7.17038 8.64578C7.23083 8.37831 7.43842 8.13609 7.99988 8.13609Z" fill="#555555"/>
</g>
<defs>
<clipPath id="clip0_1_1902">
<rect width="14" height="14" fill="white" transform="translate(1 1)"/>
</clipPath>
</defs>
</svg>
