<svg width="16" height="16" viewBox="0 0 16 16" fill="none" xmlns="http://www.w3.org/2000/svg">
<path d="M6.54692 4.47214C6.95255 3.22372 7.15537 2.59952 7.4409 2.40697C7.77881 2.1791 8.22119 2.1791 8.5591 2.40697C8.84464 2.59952 9.04745 3.22372 9.45308 4.47214C9.56657 4.82142 9.62332 4.99606 9.72405 5.12972C9.84396 5.28883 10.0087 5.40849 10.197 5.47336C10.3553 5.52786 10.5389 5.52786 10.9062 5.52786C12.2188 5.52786 12.8752 5.52786 13.1465 5.73992C13.4677 5.99088 13.6044 6.41161 13.4921 6.8034C13.3972 7.13445 12.8662 7.52024 11.8042 8.2918C11.5071 8.50766 11.3586 8.6156 11.2626 8.75271C11.1483 8.91591 11.0854 9.10953 11.0819 9.30873C11.079 9.47608 11.1357 9.65072 11.2492 10C11.6548 11.2484 11.8576 11.8726 11.7398 12.1962C11.6004 12.5792 11.2425 12.8392 10.8352 12.8535C10.491 12.8655 9.96002 12.4798 8.89806 11.7082C8.60094 11.4923 8.45238 11.3844 8.29232 11.3355C8.10179 11.2772 7.89821 11.2772 7.70768 11.3355C7.54762 11.3844 7.39906 11.4923 7.10194 11.7082C6.03998 12.4798 5.509 12.8655 5.16482 12.8535C4.75751 12.8392 4.39961 12.5792 4.26018 12.1962C4.14235 11.8726 4.34517 11.2484 4.7508 10C4.86429 9.65072 4.92104 9.47608 4.91811 9.30873C4.91462 9.10953 4.85171 8.91591 4.73744 8.75271C4.64145 8.6156 4.49289 8.50766 4.19577 8.2918C3.13381 7.52024 2.60283 7.13445 2.50794 6.8034C2.39564 6.41161 2.53235 5.99088 2.85348 5.73992C3.12484 5.52786 3.78117 5.52786 5.09383 5.52786C5.46109 5.52786 5.64472 5.52786 5.80297 5.47336C5.99134 5.40849 6.15604 5.28883 6.27595 5.12972C6.37668 4.99606 6.43343 4.82142 6.54692 4.47214Z" fill="white"/>
</svg>
