<svg width="105" height="25" viewBox="0 0 105 25" fill="none" xmlns="http://www.w3.org/2000/svg">
<g clip-path="url(#clip0_49_908)">
<path d="M12.5005 0.5C5.87299 0.5 0.500488 5.8725 0.500488 12.5C0.500488 19.1275 5.87299 24.5 12.5005 24.5C19.128 24.5 24.5005 19.1275 24.5005 12.5C24.5005 5.8725 19.128 0.5 12.5005 0.5ZM17.3817 10.33C17.3867 10.4325 17.388 10.535 17.388 10.635C17.388 13.76 15.0117 17.3613 10.6642 17.3613C9.37961 17.3634 8.1217 16.9944 7.04174 16.2987C7.22549 16.3212 7.41424 16.33 7.60549 16.33C8.71299 16.33 9.73174 15.9538 10.5405 15.3188C10.0476 15.3091 9.57008 15.1459 9.17438 14.8519C8.77868 14.5579 8.48455 14.1478 8.33299 13.6788C8.68693 13.7461 9.05155 13.7319 9.39924 13.6375C8.8643 13.5293 8.38324 13.2395 8.03762 12.8171C7.69201 12.3947 7.50312 11.8658 7.50299 11.32V11.2913C7.82174 11.4675 8.18674 11.575 8.57424 11.5875C8.07274 11.2537 7.71772 10.7408 7.58179 10.1539C7.44587 9.56699 7.5393 8.95032 7.84299 8.43C8.43668 9.16 9.17706 9.75718 10.0162 10.1829C10.8553 10.6086 11.7745 10.8533 12.7142 10.9013C12.5948 10.3941 12.6462 9.86176 12.8605 9.38688C13.0748 8.912 13.44 8.52124 13.8993 8.27533C14.3586 8.02942 14.8863 7.94215 15.4004 8.02709C15.9144 8.11203 16.3859 8.36441 16.7417 8.745C17.2707 8.64034 17.778 8.44632 18.2417 8.17125C18.0654 8.71892 17.6963 9.18397 17.203 9.48C17.6715 9.42356 18.1291 9.2976 18.5605 9.10625C18.2436 9.58112 17.8444 9.99555 17.3817 10.33V10.33Z" fill="#F1F6FA"/>
<path d="M94.5042 12.2913L91.6967 10.9813C91.4517 10.8675 91.2505 10.995 91.2505 11.2662V13.7338C91.2505 14.005 91.4517 14.1325 91.6967 14.0188L94.503 12.7088C94.7492 12.5938 94.7492 12.4063 94.5042 12.2913ZM92.5005 0.5C85.873 0.5 80.5005 5.8725 80.5005 12.5C80.5005 19.1275 85.873 24.5 92.5005 24.5C99.128 24.5 104.5 19.1275 104.5 12.5C104.5 5.8725 99.128 0.5 92.5005 0.5ZM92.5005 17.375C86.358 17.375 86.2505 16.8213 86.2505 12.5C86.2505 8.17875 86.358 7.625 92.5005 7.625C98.643 7.625 98.7505 8.17875 98.7505 12.5C98.7505 16.8213 98.643 17.375 92.5005 17.375Z" fill="#F1F6FA"/>
<path d="M52.5005 0.5C45.873 0.5 40.5005 5.8725 40.5005 12.5C40.5005 19.1275 45.873 24.5 52.5005 24.5C59.128 24.5 64.5005 19.1275 64.5005 12.5C64.5005 5.8725 59.128 0.5 52.5005 0.5ZM49.563 17.4738H47.133V9.65375H49.563V17.4738ZM48.333 8.69375C47.5655 8.69375 47.0692 8.15 47.0692 7.4775C47.0692 6.79125 47.5805 6.26375 48.3642 6.26375C49.148 6.26375 49.628 6.79125 49.643 7.4775C49.643 8.15 49.148 8.69375 48.333 8.69375ZM58.438 17.4738H56.008V13.14C56.008 12.1313 55.6555 11.4462 54.7767 11.4462C54.1055 11.4462 53.7067 11.91 53.5305 12.3563C53.4655 12.515 53.4492 12.74 53.4492 12.9638V17.4725H51.018V12.1475C51.018 11.1713 50.9867 10.355 50.9542 9.6525H53.0655L53.1767 10.7387H53.2255C53.5455 10.2287 54.3292 9.47625 55.6405 9.47625C57.2392 9.47625 58.438 10.5475 58.438 12.85V17.4738V17.4738Z" fill="#F1F6FA"/>
</g>
<defs>
<clipPath id="clip0_49_908">
<rect width="104" height="24" fill="white" transform="translate(0.500488 0.5)"/>
</clipPath>
</defs>
</svg>
